<svg width="45" height="45" viewBox="0 0 45 45" fill="none" xmlns="http://www.w3.org/2000/svg">
<path d="M31.875 33.75C32.8696 33.75 33.8234 34.1451 34.5266 34.8484C35.2299 35.5516 35.625 36.5054 35.625 37.5C35.625 38.4946 35.2299 39.4484 34.5266 40.1516C33.8234 40.8549 32.8696 41.25 31.875 41.25C30.8804 41.25 29.9266 40.8549 29.2234 40.1516C28.5201 39.4484 28.125 38.4946 28.125 37.5C28.125 35.4187 29.7937 33.75 31.875 33.75ZM1.875 3.75H8.00625L9.76875 7.5H37.5C37.9973 7.5 38.4742 7.69754 38.8258 8.04918C39.1775 8.40081 39.375 8.87772 39.375 9.375C39.375 9.69375 39.2812 10.0125 39.15 10.3125L32.4375 22.4438C31.8 23.5875 30.5625 24.375 29.1563 24.375H15.1875L13.5 27.4313L13.4438 27.6562C13.4438 27.7806 13.4931 27.8998 13.581 27.9877C13.669 28.0756 13.7882 28.125 13.9125 28.125H35.625V31.875H13.125C12.1304 31.875 11.1766 31.4799 10.4733 30.7766C9.77009 30.0734 9.375 29.1196 9.375 28.125C9.375 27.4688 9.54375 26.85 9.825 26.325L12.375 21.7313L5.625 7.5H1.875V3.75ZM13.125 33.75C14.1196 33.75 15.0734 34.1451 15.7766 34.8484C16.4799 35.5516 16.875 36.5054 16.875 37.5C16.875 38.4946 16.4799 39.4484 15.7766 40.1516C15.0734 40.8549 14.1196 41.25 13.125 41.25C12.1304 41.25 11.1766 40.8549 10.4733 40.1516C9.77009 39.4484 9.375 38.4946 9.375 37.5C9.375 35.4187 11.0437 33.75 13.125 33.75ZM30 20.625L35.2125 11.25H11.5125L15.9375 20.625H30Z" fill="#820000"/>
</svg>
