<svg width="32" height="32" viewBox="0 0 32 32" fill="none" xmlns="http://www.w3.org/2000/svg">
<path d="M4.79998 9.6C4.79998 6.505 7.30498 4 10.4 4C13.495 4 16 6.505 16 9.6C16 12.695 13.495 15.2 10.4 15.2C7.30498 15.2 4.79998 12.695 4.79998 9.6ZM1.59998 26.4C1.59998 21.54 5.53998 17.6 10.4 17.6C15.26 17.6 19.2 21.54 19.2 26.4V26.7C19.2 27.86 18.26 28.8 17.1 28.8H3.69998C2.53998 28.8 1.59998 27.86 1.59998 26.7V26.4ZM23.2 6.4C25.85 6.4 28 8.55 28 11.2C28 13.85 25.85 16 23.2 16C20.55 16 18.4 13.85 18.4 11.2C18.4 8.55 20.55 6.4 23.2 6.4ZM23.2 18.4C27.175 18.4 30.4 21.625 30.4 25.6V26.72C30.4 27.87 29.47 28.8 28.32 28.8H21.08C21.41 28.175 21.6 27.46 21.6 26.7V26.4C21.6 23.825 20.73 21.455 19.275 19.565C20.405 18.83 21.755 18.4 23.2 18.4Z" fill="#820000"/>
</svg>
