<svg width="45" height="45" viewBox="0 0 45 45" fill="none" xmlns="http://www.w3.org/2000/svg">
<path d="M37.3125 23.7375C37.012 23.3953 36.8462 22.9554 36.8462 22.5C36.8462 22.0445 37.012 21.6047 37.3125 21.2625L39.7126 18.5625C39.977 18.2675 40.1412 17.8963 40.1817 17.5022C40.2221 17.1081 40.1366 16.7113 39.9375 16.3687L36.1875 9.88124C35.9905 9.53909 35.6905 9.26788 35.3302 9.10627C34.97 8.94467 34.5679 8.90091 34.1813 8.98124L30.6563 9.69374C30.2078 9.78641 29.7408 9.71172 29.3436 9.48374C28.9464 9.25576 28.6463 8.89027 28.5 8.45624L27.3563 5.02499C27.2305 4.65257 26.9909 4.32911 26.6712 4.10032C26.3516 3.87152 25.9681 3.74897 25.5751 3.74999H18.0751C17.6662 3.72865 17.2616 3.84172 16.923 4.07195C16.5844 4.30218 16.3305 4.6369 16.2001 5.02499L15.15 8.45624C15.0038 8.89027 14.7037 9.25576 14.3065 9.48374C13.9093 9.71172 13.4423 9.78641 12.9938 9.69374L9.37505 8.98124C9.00858 8.92945 8.63499 8.98728 8.30133 9.14744C7.96766 9.30759 7.68886 9.56291 7.50005 9.88124L3.75005 16.3687C3.54597 16.7075 3.45422 17.102 3.48789 17.496C3.52157 17.89 3.67895 18.2633 3.93755 18.5625L6.3188 21.2625C6.6194 21.6047 6.78518 22.0445 6.78518 22.5C6.78518 22.9554 6.6194 23.3953 6.3188 23.7375L3.93755 26.4375C3.67895 26.7367 3.52157 27.1099 3.48789 27.5039C3.45422 27.898 3.54597 28.2925 3.75005 28.6312L7.50005 35.1187C7.69711 35.4609 7.99715 35.7321 8.3574 35.8937C8.71765 36.0553 9.11972 36.0991 9.5063 36.0187L13.0313 35.3062C13.4798 35.2136 13.9468 35.2883 14.344 35.5162C14.7412 35.7442 15.0413 36.1097 15.1875 36.5437L16.3313 39.975C16.4618 40.3631 16.7157 40.6978 17.0542 40.928C17.3928 41.1582 17.7974 41.2713 18.2063 41.25H25.7063C26.0994 41.251 26.4828 41.1285 26.8025 40.8997C27.1221 40.6709 27.3618 40.3474 27.4875 39.975L28.6313 36.5437C28.7775 36.1097 29.0776 35.7442 29.4748 35.5162C29.8721 35.2883 30.339 35.2136 30.7875 35.3062L34.3125 36.0187C34.6991 36.0991 35.1012 36.0553 35.4615 35.8937C35.8217 35.7321 36.1217 35.4609 36.3188 35.1187L40.0688 28.6312C40.2679 28.2887 40.3533 27.8919 40.3129 27.4978C40.2725 27.1037 40.1083 26.7325 39.8438 26.4375L37.3125 23.7375ZM34.5188 26.25L36.0188 27.9375L33.6188 32.1L31.4063 31.65C30.0559 31.3739 28.6511 31.6033 27.4587 32.2946C26.2662 32.9859 25.3691 34.0909 24.9375 35.4L24.225 37.5H19.425L18.75 35.3625C18.3185 34.0534 17.4214 32.9484 16.2289 32.2571C15.0365 31.5658 13.6317 31.3364 12.2813 31.6125L10.0688 32.0625L7.6313 27.9187L9.1313 26.2312C10.0537 25.1999 10.5637 23.8649 10.5637 22.4812C10.5637 21.0976 10.0537 19.7625 9.1313 18.7312L7.6313 17.0437L10.0313 12.9187L12.2438 13.3687C13.5942 13.6448 14.999 13.4154 16.1914 12.7241C17.3839 12.0328 18.281 10.9278 18.7125 9.61874L19.425 7.49999H24.225L24.9375 9.63749C25.3691 10.9465 26.2662 12.0516 27.4587 12.7429C28.6511 13.4341 30.0559 13.6635 31.4063 13.3875L33.6188 12.9375L36.0188 17.1L34.5188 18.7875C33.6067 19.8164 33.1031 21.1438 33.1031 22.5187C33.1031 23.8937 33.6067 25.2211 34.5188 26.25ZM21.8251 15C20.3417 15 18.8916 15.4399 17.6583 16.264C16.4249 17.0881 15.4636 18.2594 14.896 19.6299C14.3283 21.0003 14.1798 22.5083 14.4692 23.9632C14.7585 25.418 15.4729 26.7544 16.5217 27.8033C17.5706 28.8522 18.907 29.5665 20.3619 29.8559C21.8167 30.1453 23.3247 29.9967 24.6952 29.4291C26.0656 28.8614 27.237 27.9001 28.0611 26.6668C28.8852 25.4334 29.3251 23.9833 29.3251 22.5C29.3251 20.5109 28.5349 18.6032 27.1283 17.1967C25.7218 15.7902 23.8142 15 21.8251 15ZM21.8251 26.25C21.0834 26.25 20.3583 26.0301 19.7417 25.618C19.125 25.2059 18.6443 24.6203 18.3605 23.935C18.0767 23.2498 18.0024 22.4958 18.1471 21.7684C18.2918 21.041 18.649 20.3728 19.1734 19.8483C19.6978 19.3239 20.366 18.9667 21.0935 18.822C21.8209 18.6773 22.5749 18.7516 23.2601 19.0354C23.9453 19.3193 24.531 19.7999 24.9431 20.4166C25.3551 21.0333 25.5751 21.7583 25.5751 22.5C25.5751 23.4945 25.18 24.4484 24.4767 25.1516C23.7734 25.8549 22.8196 26.25 21.8251 26.25Z" fill="#820000"/>
</svg>
